. 
  
http://www.torrenting.com/        :     Greatest Movie Tracker on The Net!!!
 
http://www.Torrenting.com          :     Once & For all ;)


               www . Torrenting . Com 

(((((((((((((= Enjoy No RAR releases =))))))))))))))))))))


...................................NFO:....................................

.








































          
          
              
              
                    
                    
                    
                    

Friends.with.Benefits.2011.V2.R5.Xvid.AC3-SiC

Poster:
[img]http://img508.imageshack.us/img508/8290/friendswithbenefitsl.jpg[/img]

IMDB Link:
http://www.imdb.com/title/tt1632708/

Description:
While trying to avoid the clichs of Hollywood romantic comedies, Dylan and 
Jamie soon discover however that adding the act of sex to their friendship does 
lead to complications. 

MediaInfo:
General
Complete name                    : Friends.with.Benefits.2011.V2.R5.Xvid.AC3-SiC.avi
Format                           : AVI
Format/Info                      : Audio Video Interleave
File size                        : 1.28 GiB
Duration                         : 1h 44mn
Overall bit rate                 : 1 746 Kbps

Video
ID                               : 0
Format                           : MPEG-4 Visual
Format profile                   : Advanced Simple@L5
Format settings, BVOP            : Yes
Format settings, QPel            : No
Format settings, GMC             : No warppoints
Format settings, Matrix          : Default (H.263)
Muxing mode                      : Packed bitstream
Codec ID                         : XVID
Codec ID/Hint                    : XviD
Duration                         : 1h 44mn
Bit rate                         : 1 354 Kbps
Width                            : 720 pixels
Height                           : 304 pixels
Display aspect ratio             : 2.35:1
Frame rate                       : 25.000 fps
Resolution                       : 8 bits
Colorimetry                      : 4:2:0
Scan type                        : Progressive
Bits/(Pixel*Frame)               : 0.247
Stream size                      : 1 017 MiB (78%)
Writing library                  : XviD 64

Audio
ID                               : 1
Format                           : AC-3
Format/Info                      : Audio Coding 3
Format_Settings_ModeExtension    : CM (complete main)
Codec ID                         : 2000
Duration                         : 1h 44mn
Bit rate mode                    : Constant
Bit rate                         : 384 Kbps
Channel(s)                       : 6 channels
Channel positions                : Front: L C R, Side: L R, LFE
Sampling rate                    : 48.0 KHz
Stream size                      : 288 MiB (22%)
Alignment                        : Aligned on interleaves
Interleave, duration             : 64 ms (1.60 video frames)
Interleave, preload duration     : 192 ms
Title                            : 6ch English

Screenshots:
[img]http://img84.imageshack.us/img84/3942/friendswithbenefits2011.png[/img]
[img]http://img199.imageshack.us/img199/3942/friendswithbenefits2011.png[/img]
[img]http://img59.imageshack.us/img59/3942/friendswithbenefits2011.png[/img]
[img]http://img36.imageshack.us/img36/3942/friendswithbenefits2011.png[/img]
[img]http://img819.imageshack.us/img819/1607/vlcsnap2011082422h06m03.png[/img]
[img]http://img3.imageshack.us/img3/2316/vlcsnap2011082422h07m15.png[/img]
[img]http://img89.imageshack.us/img89/1710/vlcsnap2011082422h06m46.png[/img]

Note :   Reason for the v2 is we remuxed using CM8's 6ch audio Thanks :)

Source Film : DVDR.Seks.po.druzhbe.2011.DVD9 Thanks!!!
Audio Source : CM8 Thanks!!!

Encoder: Bezauk

Enjoy!

Respects to CaptainHomey, Cyanide, CM8, Rx, THC, ELEKTRI4KA, 
Killerhz, PA, YeFsTe, BoxSlots, MrRep and everyone in the struggle...